<mxfile host="Electron" modified="2023-09-25T11:35:32.197Z" agent="Mozilla/5.0 (Windows NT 10.0; Win64; x64) AppleWebKit/537.36 (KHTML, like Gecko) draw.io/21.7.5 Chrome/114.0.5735.289 Electron/25.8.1 Safari/537.36" etag="hzrIKk_c-vAcd4Wtf9yt" version="21.7.5" type="device">
  <diagram name="‫עמוד-1‬" id="yEgDZmayfc_JwmJZ2z_H">
    <mxGraphModel dx="6044" dy="1129" grid="1" gridSize="10" guides="1" tooltips="1" connect="1" arrows="1" fold="1" page="1" pageScale="1" pageWidth="827" pageHeight="1169" math="0" shadow="0">
      <root>
        <mxCell id="0" />
        <mxCell id="1" parent="0" />
        <mxCell id="PTuWUrmzwb7cRTRK4Qzy-93" value="" style="rounded=0;whiteSpace=wrap;html=1;fillColor=#dae8fc;dashed=1;strokeWidth=3;strokeColor=#6c8ebf;" parent="1" vertex="1">
          <mxGeometry x="-2880" y="295.51" width="89.5" height="1138" as="geometry" />
        </mxCell>
        <mxCell id="PTuWUrmzwb7cRTRK4Qzy-95" value="" style="rounded=0;whiteSpace=wrap;html=1;fillColor=#fff2cc;dashed=1;strokeWidth=3;strokeColor=#d6b656;" parent="1" vertex="1">
          <mxGeometry x="-2716" y="296.01" width="90" height="1138" as="geometry" />
        </mxCell>
        <mxCell id="PTuWUrmzwb7cRTRK4Qzy-87" value="" style="endArrow=classic;html=1;rounded=0;strokeWidth=2;" parent="1" edge="1">
          <mxGeometry width="50" height="50" relative="1" as="geometry">
            <mxPoint x="-2644" y="1208.01" as="sourcePoint" />
            <mxPoint x="-3120" y="210" as="targetPoint" />
            <Array as="points">
              <mxPoint x="-2554" y="1208.01" />
              <mxPoint x="-2554" y="208.01" />
              <mxPoint x="-3120" y="210" />
            </Array>
          </mxGeometry>
        </mxCell>
        <mxCell id="PTuWUrmzwb7cRTRK4Qzy-109" value="" style="endArrow=classic;html=1;rounded=0;strokeWidth=2;entryX=0.5;entryY=1;entryDx=0;entryDy=0;" parent="1" target="qH3Q0jehhY0XurhtMyEn-48" edge="1">
          <mxGeometry width="50" height="50" relative="1" as="geometry">
            <mxPoint x="-3910" y="939" as="sourcePoint" />
            <mxPoint x="-3587.75" y="738.51" as="targetPoint" />
            <Array as="points">
              <mxPoint x="-3794" y="939.01" />
              <mxPoint x="-3794" y="508" />
            </Array>
          </mxGeometry>
        </mxCell>
        <mxCell id="PTuWUrmzwb7cRTRK4Qzy-119" value="&lt;font style=&quot;font-size: 24px;&quot; face=&quot;Garamond&quot;&gt;query_seq[31:0][1:0]&lt;/font&gt;" style="edgeLabel;html=1;align=center;verticalAlign=middle;resizable=0;points=[];labelBackgroundColor=none;fontSize=24;" parent="PTuWUrmzwb7cRTRK4Qzy-109" vertex="1" connectable="0">
          <mxGeometry x="-0.9118" y="2" relative="1" as="geometry">
            <mxPoint x="-131" y="-1" as="offset" />
          </mxGeometry>
        </mxCell>
        <mxCell id="PTuWUrmzwb7cRTRK4Qzy-114" value="" style="endArrow=classic;html=1;rounded=0;entryX=0.5;entryY=1;entryDx=0;entryDy=0;strokeWidth=2;" parent="1" target="qH3Q0jehhY0XurhtMyEn-53" edge="1">
          <mxGeometry width="50" height="50" relative="1" as="geometry">
            <mxPoint x="-3910" y="1009" as="sourcePoint" />
            <mxPoint x="-3607.75" y="647.51" as="targetPoint" />
            <Array as="points">
              <mxPoint x="-3754" y="1009.01" />
              <mxPoint x="-3754" y="577" />
            </Array>
          </mxGeometry>
        </mxCell>
        <mxCell id="PTuWUrmzwb7cRTRK4Qzy-120" value="database_seq[31:0][1:0]" style="edgeLabel;html=1;align=center;verticalAlign=middle;resizable=0;points=[];labelBackgroundColor=none;fontSize=24;fontFamily=Garamond;" parent="PTuWUrmzwb7cRTRK4Qzy-114" vertex="1" connectable="0">
          <mxGeometry x="-0.9656" y="2" relative="1" as="geometry">
            <mxPoint x="-124" as="offset" />
          </mxGeometry>
        </mxCell>
        <mxCell id="PTuWUrmzwb7cRTRK4Qzy-82" value="" style="endArrow=classic;html=1;rounded=0;strokeWidth=2;exitX=0.995;exitY=0.313;exitDx=0;exitDy=0;exitPerimeter=0;jumpStyle=none;" parent="1" source="PTuWUrmzwb7cRTRK4Qzy-22" edge="1">
          <mxGeometry width="50" height="50" relative="1" as="geometry">
            <mxPoint x="-2694" y="698.01" as="sourcePoint" />
            <mxPoint x="-3120" y="220" as="targetPoint" />
            <Array as="points">
              <mxPoint x="-2564" y="770" />
              <mxPoint x="-2564" y="218.01" />
              <mxPoint x="-2910" y="218" />
            </Array>
          </mxGeometry>
        </mxCell>
        <mxCell id="PTuWUrmzwb7cRTRK4Qzy-115" value="" style="endArrow=classic;html=1;rounded=0;entryX=0.527;entryY=0.986;entryDx=0;entryDy=0;strokeWidth=2;entryPerimeter=0;" parent="1" target="PTuWUrmzwb7cRTRK4Qzy-34" edge="1">
          <mxGeometry width="50" height="50" relative="1" as="geometry">
            <mxPoint x="-3754" y="1009.01" as="sourcePoint" />
            <mxPoint x="-3494" y="1039.01" as="targetPoint" />
          </mxGeometry>
        </mxCell>
        <mxCell id="PTuWUrmzwb7cRTRK4Qzy-112" value="" style="endArrow=classic;html=1;rounded=0;entryX=0.5;entryY=1;entryDx=0;entryDy=0;strokeWidth=2;" parent="1" target="PTuWUrmzwb7cRTRK4Qzy-33" edge="1">
          <mxGeometry width="50" height="50" relative="1" as="geometry">
            <mxPoint x="-3794" y="939.01" as="sourcePoint" />
            <mxPoint x="-3890" y="910.51" as="targetPoint" />
          </mxGeometry>
        </mxCell>
        <mxCell id="PTuWUrmzwb7cRTRK4Qzy-81" value="" style="endArrow=classic;html=1;rounded=0;strokeWidth=2;" parent="1" edge="1">
          <mxGeometry width="50" height="50" relative="1" as="geometry">
            <mxPoint x="-2644" y="338.01" as="sourcePoint" />
            <mxPoint x="-3120" y="228" as="targetPoint" />
            <Array as="points">
              <mxPoint x="-2574" y="338.01" />
              <mxPoint x="-2574" y="228.01" />
              <mxPoint x="-3030" y="228" />
            </Array>
          </mxGeometry>
        </mxCell>
        <mxCell id="fvL7kXiqWdw7jgWHYyn_-1" value="&lt;b style=&quot;&quot;&gt;&lt;font style=&quot;font-size: 28px;&quot;&gt;Processing Unit 0&lt;/font&gt;&lt;/b&gt;" style="rounded=0;whiteSpace=wrap;html=1;fillColor=#e1d5e7;strokeColor=#9673a6;fontFamily=Garamond;fontSize=20;" parent="1" vertex="1">
          <mxGeometry x="-3344" y="278.01" width="240" height="320" as="geometry" />
        </mxCell>
        <mxCell id="fvL7kXiqWdw7jgWHYyn_-21" value="" style="endArrow=classic;html=1;rounded=0;strokeWidth=3;exitX=0.5;exitY=0;exitDx=0;exitDy=0;entryX=0;entryY=0.25;entryDx=0;entryDy=0;" parent="1" source="qH3Q0jehhY0XurhtMyEn-5" edge="1">
          <mxGeometry width="50" height="50" relative="1" as="geometry">
            <mxPoint x="-3539" y="298.01" as="sourcePoint" />
            <mxPoint x="-3344" y="298.01" as="targetPoint" />
          </mxGeometry>
        </mxCell>
        <mxCell id="qH3Q0jehhY0XurhtMyEn-1" value="" style="endArrow=classic;html=1;rounded=0;strokeWidth=3;exitX=0.5;exitY=0;exitDx=0;exitDy=0;" parent="1" source="qH3Q0jehhY0XurhtMyEn-43" edge="1">
          <mxGeometry width="50" height="50" relative="1" as="geometry">
            <mxPoint x="-3539" y="375.97" as="sourcePoint" />
            <mxPoint x="-3344" y="368.01" as="targetPoint" />
          </mxGeometry>
        </mxCell>
        <mxCell id="qH3Q0jehhY0XurhtMyEn-2" value="&lt;span style=&quot;font-size: 20px; font-weight: normal;&quot;&gt;left_scores[1:0][6:0]&lt;/span&gt;" style="edgeLabel;html=1;align=center;verticalAlign=middle;resizable=0;points=[];fontColor=#000000;fontFamily=Garamond;fontSize=20;fontStyle=1;labelBackgroundColor=none;" parent="qH3Q0jehhY0XurhtMyEn-1" connectable="0" vertex="1">
          <mxGeometry x="-0.44" y="3" relative="1" as="geometry">
            <mxPoint x="44" y="-13" as="offset" />
          </mxGeometry>
        </mxCell>
        <mxCell id="qH3Q0jehhY0XurhtMyEn-10" value="&lt;span style=&quot;font-size: 20px; font-weight: normal;&quot;&gt;top_scores[1:0][6:0]&lt;/span&gt;" style="edgeLabel;html=1;align=center;verticalAlign=middle;resizable=0;points=[];fontColor=#000000;fontFamily=Garamond;fontSize=20;fontStyle=1;labelBackgroundColor=none;" parent="qH3Q0jehhY0XurhtMyEn-1" connectable="0" vertex="1">
          <mxGeometry x="-0.44" y="3" relative="1" as="geometry">
            <mxPoint x="45" y="-82" as="offset" />
          </mxGeometry>
        </mxCell>
        <mxCell id="qH3Q0jehhY0XurhtMyEn-3" value="" style="endArrow=classic;html=1;rounded=0;strokeWidth=3;exitX=0.5;exitY=0;exitDx=0;exitDy=0;" parent="1" source="qH3Q0jehhY0XurhtMyEn-42" edge="1">
          <mxGeometry width="50" height="50" relative="1" as="geometry">
            <mxPoint x="-3534" y="458.01" as="sourcePoint" />
            <mxPoint x="-3344" y="438.01" as="targetPoint" />
          </mxGeometry>
        </mxCell>
        <mxCell id="qH3Q0jehhY0XurhtMyEn-4" value="&lt;span style=&quot;font-size: 20px; font-weight: normal;&quot;&gt;diagonal_score[6:0]&lt;/span&gt;" style="edgeLabel;html=1;align=center;verticalAlign=middle;resizable=0;points=[];fontColor=#000000;fontFamily=Garamond;fontSize=20;fontStyle=1;labelBackgroundColor=none;" parent="qH3Q0jehhY0XurhtMyEn-3" connectable="0" vertex="1">
          <mxGeometry x="-0.44" y="3" relative="1" as="geometry">
            <mxPoint x="58" y="-12" as="offset" />
          </mxGeometry>
        </mxCell>
        <mxCell id="qH3Q0jehhY0XurhtMyEn-5" value="" style="shape=trapezoid;perimeter=trapezoidPerimeter;whiteSpace=wrap;html=1;fixedSize=1;rotation=90;size=10;fillColor=#f8cecc;strokeColor=#b85450;" parent="1" vertex="1">
          <mxGeometry x="-3554" y="291.01" width="67.5" height="15" as="geometry" />
        </mxCell>
        <mxCell id="qH3Q0jehhY0XurhtMyEn-12" value="&lt;b&gt;&lt;font style=&quot;font-size: 16px;&quot; face=&quot;Garamond&quot;&gt;28-bit REG&lt;/font&gt;&lt;/b&gt;" style="rounded=0;whiteSpace=wrap;html=1;fillColor=#b0e3e6;strokeColor=#0e8088;" parent="1" vertex="1">
          <mxGeometry x="-2860" y="313.01" width="50" height="80" as="geometry" />
        </mxCell>
        <mxCell id="qH3Q0jehhY0XurhtMyEn-13" value="" style="triangle;whiteSpace=wrap;html=1;fillColor=#b0e3e6;strokeColor=#0e8088;" parent="1" vertex="1">
          <mxGeometry x="-2860" y="368.47" width="7.5" height="14.733333333333333" as="geometry" />
        </mxCell>
        <mxCell id="qH3Q0jehhY0XurhtMyEn-16" value="" style="endArrow=classic;html=1;rounded=0;strokeWidth=2;entryX=-0.001;entryY=0.311;entryDx=0;entryDy=0;entryPerimeter=0;" parent="1" edge="1" target="qH3Q0jehhY0XurhtMyEn-12">
          <mxGeometry width="50" height="50" relative="1" as="geometry">
            <mxPoint x="-3104" y="338.01" as="sourcePoint" />
            <mxPoint x="-2854" y="338.01" as="targetPoint" />
          </mxGeometry>
        </mxCell>
        <mxCell id="PTuWUrmzwb7cRTRK4Qzy-3" value="scores_cur_cycle[3:0][6:0]" style="edgeLabel;html=1;align=left;verticalAlign=middle;resizable=0;points=[];labelBackgroundColor=none;fontSize=20;fontFamily=Garamond;" parent="qH3Q0jehhY0XurhtMyEn-16" vertex="1" connectable="0">
          <mxGeometry x="0.1703" y="-3" relative="1" as="geometry">
            <mxPoint x="-142" y="-18" as="offset" />
          </mxGeometry>
        </mxCell>
        <mxCell id="qH3Q0jehhY0XurhtMyEn-32" value="&lt;b&gt;&lt;font style=&quot;font-size: 16px;&quot; face=&quot;Garamond&quot;&gt;7-bit REG&lt;/font&gt;&lt;/b&gt;" style="rounded=0;whiteSpace=wrap;html=1;fillColor=#fad7ac;strokeColor=#b46504;" parent="1" vertex="1">
          <mxGeometry x="-2694" y="313.01" width="50" height="80" as="geometry" />
        </mxCell>
        <mxCell id="qH3Q0jehhY0XurhtMyEn-33" value="" style="triangle;whiteSpace=wrap;html=1;fillColor=#fad7ac;strokeColor=#b46504;" parent="1" vertex="1">
          <mxGeometry x="-2694" y="368.47" width="7.5" height="14.733333333333333" as="geometry" />
        </mxCell>
        <mxCell id="qH3Q0jehhY0XurhtMyEn-34" value="" style="endArrow=classic;html=1;rounded=0;strokeWidth=2;endFill=1;entryX=-0.006;entryY=0.31;entryDx=0;entryDy=0;entryPerimeter=0;" parent="1" target="qH3Q0jehhY0XurhtMyEn-32" edge="1">
          <mxGeometry width="50" height="50" relative="1" as="geometry">
            <mxPoint x="-2803" y="338.01" as="sourcePoint" />
            <mxPoint x="-2744" y="338.01" as="targetPoint" />
          </mxGeometry>
        </mxCell>
        <mxCell id="qH3Q0jehhY0XurhtMyEn-42" value="" style="shape=trapezoid;perimeter=trapezoidPerimeter;whiteSpace=wrap;html=1;fixedSize=1;rotation=90;size=10;fillColor=#f8cecc;strokeColor=#b85450;" parent="1" vertex="1">
          <mxGeometry x="-3594" y="430.01" width="67.5" height="15" as="geometry" />
        </mxCell>
        <mxCell id="qH3Q0jehhY0XurhtMyEn-43" value="" style="shape=trapezoid;perimeter=trapezoidPerimeter;whiteSpace=wrap;html=1;fixedSize=1;rotation=90;size=10;fillColor=#f8cecc;strokeColor=#b85450;" parent="1" vertex="1">
          <mxGeometry x="-3574" y="359.01" width="67.5" height="15" as="geometry" />
        </mxCell>
        <mxCell id="qH3Q0jehhY0XurhtMyEn-44" value="" style="endArrow=classic;html=1;rounded=0;strokeWidth=3;" parent="1" source="qH3Q0jehhY0XurhtMyEn-48" edge="1">
          <mxGeometry width="50" height="50" relative="1" as="geometry">
            <mxPoint x="-3574" y="537.0899999999999" as="sourcePoint" />
            <mxPoint x="-3344" y="508.01" as="targetPoint" />
          </mxGeometry>
        </mxCell>
        <mxCell id="qH3Q0jehhY0XurhtMyEn-58" value="&lt;font style=&quot;font-size: 20px;&quot; face=&quot;Garamond&quot;&gt;query_letters[1:0][1:0]&lt;/font&gt;" style="edgeLabel;html=1;align=center;verticalAlign=middle;resizable=0;points=[];labelBackgroundColor=none;" parent="qH3Q0jehhY0XurhtMyEn-44" vertex="1" connectable="0">
          <mxGeometry x="0.0776" y="1" relative="1" as="geometry">
            <mxPoint x="4" y="-13" as="offset" />
          </mxGeometry>
        </mxCell>
        <mxCell id="qH3Q0jehhY0XurhtMyEn-45" value="" style="endArrow=classic;html=1;rounded=0;strokeWidth=3;" parent="1" source="qH3Q0jehhY0XurhtMyEn-53" edge="1">
          <mxGeometry width="50" height="50" relative="1" as="geometry">
            <mxPoint x="-3574" y="608.01" as="sourcePoint" />
            <mxPoint x="-3344" y="578.01" as="targetPoint" />
          </mxGeometry>
        </mxCell>
        <mxCell id="qH3Q0jehhY0XurhtMyEn-59" value="&lt;font style=&quot;font-size: 20px;&quot; face=&quot;Garamond&quot;&gt;database_letters[1:0][1:0]&lt;/font&gt;" style="edgeLabel;html=1;align=center;verticalAlign=middle;resizable=0;points=[];labelBackgroundColor=none;" parent="qH3Q0jehhY0XurhtMyEn-45" vertex="1" connectable="0">
          <mxGeometry x="-0.498" relative="1" as="geometry">
            <mxPoint x="73" y="-13" as="offset" />
          </mxGeometry>
        </mxCell>
        <mxCell id="qH3Q0jehhY0XurhtMyEn-48" value="" style="shape=trapezoid;perimeter=trapezoidPerimeter;whiteSpace=wrap;html=1;fixedSize=1;rotation=90;size=10;fillColor=#f8cecc;strokeColor=#b85450;" parent="1" vertex="1">
          <mxGeometry x="-3614" y="500.01" width="67.5" height="15" as="geometry" />
        </mxCell>
        <mxCell id="qH3Q0jehhY0XurhtMyEn-53" value="" style="shape=trapezoid;perimeter=trapezoidPerimeter;whiteSpace=wrap;html=1;fixedSize=1;rotation=90;size=10;fillColor=#f8cecc;strokeColor=#b85450;" parent="1" vertex="1">
          <mxGeometry x="-3634" y="569.01" width="67.5" height="15" as="geometry" />
        </mxCell>
        <mxCell id="PTuWUrmzwb7cRTRK4Qzy-4" value="" style="endArrow=classic;html=1;rounded=0;exitX=1;exitY=0.5;exitDx=0;exitDy=0;strokeWidth=2;" parent="1" edge="1">
          <mxGeometry width="50" height="50" relative="1" as="geometry">
            <mxPoint x="-3104" y="538.01" as="sourcePoint" />
            <mxPoint x="-2924" y="538.01" as="targetPoint" />
          </mxGeometry>
        </mxCell>
        <mxCell id="PTuWUrmzwb7cRTRK4Qzy-5" value="&lt;font face=&quot;Garamond&quot; style=&quot;font-size: 20px;&quot;&gt;data_packet[3:0][2:0]&lt;/font&gt;" style="edgeLabel;html=1;align=center;verticalAlign=middle;resizable=0;points=[];labelBackgroundColor=none;" parent="PTuWUrmzwb7cRTRK4Qzy-4" vertex="1" connectable="0">
          <mxGeometry x="0.8582" y="-4" relative="1" as="geometry">
            <mxPoint x="-85" y="-18" as="offset" />
          </mxGeometry>
        </mxCell>
        <mxCell id="PTuWUrmzwb7cRTRK4Qzy-9" value="&lt;b style=&quot;&quot;&gt;&lt;font style=&quot;font-size: 28px;&quot;&gt;Processing Unit i&lt;/font&gt;&lt;/b&gt;" style="rounded=0;whiteSpace=wrap;html=1;fillColor=#e1d5e7;strokeColor=#9673a6;fontFamily=Garamond;fontSize=20;" parent="1" vertex="1">
          <mxGeometry x="-3344" y="709.01" width="240" height="320" as="geometry" />
        </mxCell>
        <mxCell id="PTuWUrmzwb7cRTRK4Qzy-10" value="" style="endArrow=classic;html=1;rounded=0;strokeWidth=3;exitX=0.5;exitY=0;exitDx=0;exitDy=0;entryX=0;entryY=0.25;entryDx=0;entryDy=0;" parent="1" source="PTuWUrmzwb7cRTRK4Qzy-17" edge="1">
          <mxGeometry width="50" height="50" relative="1" as="geometry">
            <mxPoint x="-3539" y="729.01" as="sourcePoint" />
            <mxPoint x="-3344" y="729.01" as="targetPoint" />
          </mxGeometry>
        </mxCell>
        <mxCell id="PTuWUrmzwb7cRTRK4Qzy-11" value="" style="endArrow=classic;html=1;rounded=0;strokeWidth=3;exitX=0.5;exitY=0;exitDx=0;exitDy=0;" parent="1" source="PTuWUrmzwb7cRTRK4Qzy-28" edge="1">
          <mxGeometry width="50" height="50" relative="1" as="geometry">
            <mxPoint x="-3539" y="806.97" as="sourcePoint" />
            <mxPoint x="-3344" y="799.01" as="targetPoint" />
          </mxGeometry>
        </mxCell>
        <mxCell id="PTuWUrmzwb7cRTRK4Qzy-12" value="&lt;span style=&quot;font-size: 20px; font-weight: normal;&quot;&gt;left_scores[1:0][6:0]&lt;/span&gt;" style="edgeLabel;html=1;align=center;verticalAlign=middle;resizable=0;points=[];fontColor=#000000;fontFamily=Garamond;fontSize=20;fontStyle=1;labelBackgroundColor=none;" parent="PTuWUrmzwb7cRTRK4Qzy-11" connectable="0" vertex="1">
          <mxGeometry x="-0.44" y="3" relative="1" as="geometry">
            <mxPoint x="44" y="-12" as="offset" />
          </mxGeometry>
        </mxCell>
        <mxCell id="PTuWUrmzwb7cRTRK4Qzy-13" value="&lt;span style=&quot;font-size: 20px; font-weight: normal;&quot;&gt;top_scores[1:0][6:0]&lt;/span&gt;" style="edgeLabel;html=1;align=center;verticalAlign=middle;resizable=0;points=[];fontColor=#000000;fontFamily=Garamond;fontSize=20;fontStyle=1;labelBackgroundColor=none;" parent="PTuWUrmzwb7cRTRK4Qzy-11" connectable="0" vertex="1">
          <mxGeometry x="-0.44" y="3" relative="1" as="geometry">
            <mxPoint x="45" y="-81" as="offset" />
          </mxGeometry>
        </mxCell>
        <mxCell id="PTuWUrmzwb7cRTRK4Qzy-14" value="" style="endArrow=classic;html=1;rounded=0;strokeWidth=3;exitX=0.5;exitY=0;exitDx=0;exitDy=0;" parent="1" source="PTuWUrmzwb7cRTRK4Qzy-27" edge="1">
          <mxGeometry width="50" height="50" relative="1" as="geometry">
            <mxPoint x="-3534" y="889.01" as="sourcePoint" />
            <mxPoint x="-3344" y="869.01" as="targetPoint" />
          </mxGeometry>
        </mxCell>
        <mxCell id="PTuWUrmzwb7cRTRK4Qzy-15" value="&lt;span style=&quot;font-size: 20px; font-weight: normal;&quot;&gt;diagonal_score[6:0]&lt;/span&gt;" style="edgeLabel;html=1;align=center;verticalAlign=middle;resizable=0;points=[];fontColor=#000000;fontFamily=Garamond;fontSize=20;fontStyle=1;labelBackgroundColor=none;" parent="PTuWUrmzwb7cRTRK4Qzy-14" connectable="0" vertex="1">
          <mxGeometry x="-0.44" y="3" relative="1" as="geometry">
            <mxPoint x="58" y="-11" as="offset" />
          </mxGeometry>
        </mxCell>
        <mxCell id="PTuWUrmzwb7cRTRK4Qzy-17" value="" style="shape=trapezoid;perimeter=trapezoidPerimeter;whiteSpace=wrap;html=1;fixedSize=1;rotation=90;size=10;fillColor=#f8cecc;strokeColor=#b85450;" parent="1" vertex="1">
          <mxGeometry x="-3554" y="722.01" width="67.5" height="15" as="geometry" />
        </mxCell>
        <mxCell id="PTuWUrmzwb7cRTRK4Qzy-18" value="&lt;b&gt;&lt;font style=&quot;font-size: 16px;&quot; face=&quot;Garamond&quot;&gt;28-bit REG&lt;/font&gt;&lt;/b&gt;" style="rounded=0;whiteSpace=wrap;html=1;fillColor=#b0e3e6;strokeColor=#0e8088;" parent="1" vertex="1">
          <mxGeometry x="-2860" y="744.01" width="50" height="80" as="geometry" />
        </mxCell>
        <mxCell id="PTuWUrmzwb7cRTRK4Qzy-19" value="" style="triangle;whiteSpace=wrap;html=1;fillColor=#b0e3e6;strokeColor=#0e8088;" parent="1" vertex="1">
          <mxGeometry x="-2860" y="799.47" width="7.5" height="14.733333333333333" as="geometry" />
        </mxCell>
        <mxCell id="PTuWUrmzwb7cRTRK4Qzy-20" value="" style="endArrow=classic;html=1;rounded=0;strokeWidth=2;entryX=0;entryY=0.313;entryDx=0;entryDy=0;entryPerimeter=0;" parent="1" target="PTuWUrmzwb7cRTRK4Qzy-18" edge="1">
          <mxGeometry width="50" height="50" relative="1" as="geometry">
            <mxPoint x="-3104" y="769.01" as="sourcePoint" />
            <mxPoint x="-2914" y="769.01" as="targetPoint" />
          </mxGeometry>
        </mxCell>
        <mxCell id="PTuWUrmzwb7cRTRK4Qzy-21" value="scores_cur_cycle[i]" style="edgeLabel;html=1;align=left;verticalAlign=middle;resizable=0;points=[];labelBackgroundColor=none;fontSize=20;fontFamily=Garamond;" parent="PTuWUrmzwb7cRTRK4Qzy-20" vertex="1" connectable="0">
          <mxGeometry x="0.1703" y="-3" relative="1" as="geometry">
            <mxPoint x="-145" y="-19" as="offset" />
          </mxGeometry>
        </mxCell>
        <mxCell id="PTuWUrmzwb7cRTRK4Qzy-22" value="&lt;b&gt;&lt;font style=&quot;font-size: 16px;&quot; face=&quot;Garamond&quot;&gt;7-bit REG&lt;/font&gt;&lt;/b&gt;" style="rounded=0;whiteSpace=wrap;html=1;fillColor=#fad7ac;strokeColor=#b46504;" parent="1" vertex="1">
          <mxGeometry x="-2694" y="744.01" width="50" height="80" as="geometry" />
        </mxCell>
        <mxCell id="PTuWUrmzwb7cRTRK4Qzy-23" value="" style="triangle;whiteSpace=wrap;html=1;fillColor=#fad7ac;strokeColor=#b46504;" parent="1" vertex="1">
          <mxGeometry x="-2694" y="799.47" width="7.5" height="14.733333333333333" as="geometry" />
        </mxCell>
        <mxCell id="PTuWUrmzwb7cRTRK4Qzy-24" value="" style="endArrow=classic;html=1;rounded=0;strokeWidth=2;endFill=1;entryX=-0.006;entryY=0.323;entryDx=0;entryDy=0;entryPerimeter=0;exitX=1.002;exitY=0.323;exitDx=0;exitDy=0;exitPerimeter=0;" parent="1" target="PTuWUrmzwb7cRTRK4Qzy-22" edge="1" source="PTuWUrmzwb7cRTRK4Qzy-18">
          <mxGeometry width="50" height="50" relative="1" as="geometry">
            <mxPoint x="-2794" y="769.01" as="sourcePoint" />
            <mxPoint x="-2744" y="769.01" as="targetPoint" />
          </mxGeometry>
        </mxCell>
        <mxCell id="PTuWUrmzwb7cRTRK4Qzy-27" value="" style="shape=trapezoid;perimeter=trapezoidPerimeter;whiteSpace=wrap;html=1;fixedSize=1;rotation=90;size=10;fillColor=#f8cecc;strokeColor=#b85450;" parent="1" vertex="1">
          <mxGeometry x="-3594" y="861.01" width="67.5" height="15" as="geometry" />
        </mxCell>
        <mxCell id="PTuWUrmzwb7cRTRK4Qzy-28" value="" style="shape=trapezoid;perimeter=trapezoidPerimeter;whiteSpace=wrap;html=1;fixedSize=1;rotation=90;size=10;fillColor=#f8cecc;strokeColor=#b85450;" parent="1" vertex="1">
          <mxGeometry x="-3574" y="790.01" width="67.5" height="15" as="geometry" />
        </mxCell>
        <mxCell id="PTuWUrmzwb7cRTRK4Qzy-29" value="" style="endArrow=classic;html=1;rounded=0;strokeWidth=3;" parent="1" source="PTuWUrmzwb7cRTRK4Qzy-33" edge="1">
          <mxGeometry width="50" height="50" relative="1" as="geometry">
            <mxPoint x="-3574" y="968.0899999999999" as="sourcePoint" />
            <mxPoint x="-3344" y="939.01" as="targetPoint" />
          </mxGeometry>
        </mxCell>
        <mxCell id="PTuWUrmzwb7cRTRK4Qzy-30" value="&lt;font style=&quot;font-size: 20px;&quot; face=&quot;Garamond&quot;&gt;query_letters[1:0][1:0]&lt;/font&gt;" style="edgeLabel;html=1;align=center;verticalAlign=middle;resizable=0;points=[];labelBackgroundColor=none;" parent="PTuWUrmzwb7cRTRK4Qzy-29" vertex="1" connectable="0">
          <mxGeometry x="0.0776" y="1" relative="1" as="geometry">
            <mxPoint x="4" y="-13" as="offset" />
          </mxGeometry>
        </mxCell>
        <mxCell id="PTuWUrmzwb7cRTRK4Qzy-31" value="" style="endArrow=classic;html=1;rounded=0;strokeWidth=3;" parent="1" source="PTuWUrmzwb7cRTRK4Qzy-34" edge="1">
          <mxGeometry width="50" height="50" relative="1" as="geometry">
            <mxPoint x="-3574" y="1039.01" as="sourcePoint" />
            <mxPoint x="-3344" y="1009.01" as="targetPoint" />
          </mxGeometry>
        </mxCell>
        <mxCell id="PTuWUrmzwb7cRTRK4Qzy-32" value="&lt;font style=&quot;font-size: 20px;&quot; face=&quot;Garamond&quot;&gt;database_letters[1:0][1:0]&lt;/font&gt;" style="edgeLabel;html=1;align=center;verticalAlign=middle;resizable=0;points=[];labelBackgroundColor=none;" parent="PTuWUrmzwb7cRTRK4Qzy-31" vertex="1" connectable="0">
          <mxGeometry x="-0.498" relative="1" as="geometry">
            <mxPoint x="73" y="-14" as="offset" />
          </mxGeometry>
        </mxCell>
        <mxCell id="PTuWUrmzwb7cRTRK4Qzy-33" value="" style="shape=trapezoid;perimeter=trapezoidPerimeter;whiteSpace=wrap;html=1;fixedSize=1;rotation=90;size=10;fillColor=#f8cecc;strokeColor=#b85450;" parent="1" vertex="1">
          <mxGeometry x="-3614" y="931.01" width="67.5" height="15" as="geometry" />
        </mxCell>
        <mxCell id="PTuWUrmzwb7cRTRK4Qzy-34" value="" style="shape=trapezoid;perimeter=trapezoidPerimeter;whiteSpace=wrap;html=1;fixedSize=1;rotation=90;size=10;fillColor=#f8cecc;strokeColor=#b85450;" parent="1" vertex="1">
          <mxGeometry x="-3634" y="1000.01" width="67.5" height="15" as="geometry" />
        </mxCell>
        <mxCell id="PTuWUrmzwb7cRTRK4Qzy-35" value="" style="endArrow=classic;html=1;rounded=0;exitX=1;exitY=0.5;exitDx=0;exitDy=0;strokeWidth=2;" parent="1" edge="1">
          <mxGeometry width="50" height="50" relative="1" as="geometry">
            <mxPoint x="-3104" y="969.01" as="sourcePoint" />
            <mxPoint x="-2924" y="969.01" as="targetPoint" />
          </mxGeometry>
        </mxCell>
        <mxCell id="PTuWUrmzwb7cRTRK4Qzy-36" value="&lt;font face=&quot;Garamond&quot; style=&quot;font-size: 20px;&quot;&gt;data_packet[i]&lt;/font&gt;" style="edgeLabel;html=1;align=center;verticalAlign=middle;resizable=0;points=[];labelBackgroundColor=none;" parent="PTuWUrmzwb7cRTRK4Qzy-35" vertex="1" connectable="0">
          <mxGeometry x="0.8582" y="-4" relative="1" as="geometry">
            <mxPoint x="-111" y="-20" as="offset" />
          </mxGeometry>
        </mxCell>
        <mxCell id="PTuWUrmzwb7cRTRK4Qzy-38" value="&lt;b style=&quot;&quot;&gt;&lt;font style=&quot;font-size: 28px;&quot;&gt;Processing Unit 15&lt;/font&gt;&lt;/b&gt;" style="rounded=0;whiteSpace=wrap;html=1;fillColor=#e1d5e7;strokeColor=#9673a6;fontFamily=Garamond;fontSize=20;" parent="1" vertex="1">
          <mxGeometry x="-3344" y="1148.01" width="240" height="320" as="geometry" />
        </mxCell>
        <mxCell id="PTuWUrmzwb7cRTRK4Qzy-39" value="" style="endArrow=classic;html=1;rounded=0;strokeWidth=3;exitX=0.5;exitY=0;exitDx=0;exitDy=0;entryX=0;entryY=0.25;entryDx=0;entryDy=0;" parent="1" edge="1">
          <mxGeometry width="50" height="50" relative="1" as="geometry">
            <mxPoint x="-3512.75" y="1168.51" as="sourcePoint" />
            <mxPoint x="-3344" y="1168.01" as="targetPoint" />
          </mxGeometry>
        </mxCell>
        <mxCell id="PTuWUrmzwb7cRTRK4Qzy-40" value="" style="endArrow=classic;html=1;rounded=0;strokeWidth=3;entryX=-0.001;entryY=0.287;entryDx=0;entryDy=0;entryPerimeter=0;" parent="1" edge="1" target="PTuWUrmzwb7cRTRK4Qzy-38">
          <mxGeometry width="50" height="50" relative="1" as="geometry">
            <mxPoint x="-3530" y="1240" as="sourcePoint" />
            <mxPoint x="-3344" y="1238.01" as="targetPoint" />
          </mxGeometry>
        </mxCell>
        <mxCell id="PTuWUrmzwb7cRTRK4Qzy-41" value="&lt;span style=&quot;font-size: 20px; font-weight: normal;&quot;&gt;left_scores[1:0][6:0]&lt;/span&gt;" style="edgeLabel;html=1;align=center;verticalAlign=middle;resizable=0;points=[];fontColor=#000000;fontFamily=Garamond;fontSize=20;fontStyle=1;labelBackgroundColor=none;" parent="PTuWUrmzwb7cRTRK4Qzy-40" connectable="0" vertex="1">
          <mxGeometry x="-0.44" y="3" relative="1" as="geometry">
            <mxPoint x="42" y="-11" as="offset" />
          </mxGeometry>
        </mxCell>
        <mxCell id="PTuWUrmzwb7cRTRK4Qzy-42" value="&lt;span style=&quot;font-size: 20px; font-weight: normal;&quot;&gt;top_scores[1:0][6:0]&lt;/span&gt;" style="edgeLabel;html=1;align=center;verticalAlign=middle;resizable=0;points=[];fontColor=#000000;fontFamily=Garamond;fontSize=20;fontStyle=1;labelBackgroundColor=none;" parent="PTuWUrmzwb7cRTRK4Qzy-40" connectable="0" vertex="1">
          <mxGeometry x="-0.44" y="3" relative="1" as="geometry">
            <mxPoint x="42" y="-82" as="offset" />
          </mxGeometry>
        </mxCell>
        <mxCell id="PTuWUrmzwb7cRTRK4Qzy-43" value="" style="endArrow=classic;html=1;rounded=0;strokeWidth=3;exitX=0.5;exitY=0;exitDx=0;exitDy=0;" parent="1" edge="1">
          <mxGeometry width="50" height="50" relative="1" as="geometry">
            <mxPoint x="-3552.75" y="1307.5100000000002" as="sourcePoint" />
            <mxPoint x="-3344" y="1308.01" as="targetPoint" />
          </mxGeometry>
        </mxCell>
        <mxCell id="PTuWUrmzwb7cRTRK4Qzy-44" value="&lt;span style=&quot;font-size: 20px; font-weight: normal;&quot;&gt;diagonal_score[6:0]&lt;/span&gt;" style="edgeLabel;html=1;align=center;verticalAlign=middle;resizable=0;points=[];fontColor=#000000;fontFamily=Garamond;fontSize=20;fontStyle=1;labelBackgroundColor=none;" parent="PTuWUrmzwb7cRTRK4Qzy-43" connectable="0" vertex="1">
          <mxGeometry x="-0.44" y="3" relative="1" as="geometry">
            <mxPoint x="57" y="-12" as="offset" />
          </mxGeometry>
        </mxCell>
        <mxCell id="PTuWUrmzwb7cRTRK4Qzy-46" value="&lt;b&gt;&lt;font style=&quot;font-size: 16px;&quot; face=&quot;Garamond&quot;&gt;28-bit REG&lt;/font&gt;&lt;/b&gt;" style="rounded=0;whiteSpace=wrap;html=1;fillColor=#b0e3e6;strokeColor=#0e8088;" parent="1" vertex="1">
          <mxGeometry x="-2860" y="1183.01" width="50" height="80" as="geometry" />
        </mxCell>
        <mxCell id="PTuWUrmzwb7cRTRK4Qzy-47" value="" style="triangle;whiteSpace=wrap;html=1;fillColor=#b0e3e6;strokeColor=#0e8088;" parent="1" vertex="1">
          <mxGeometry x="-2860" y="1238.47" width="7.5" height="14.733333333333333" as="geometry" />
        </mxCell>
        <mxCell id="PTuWUrmzwb7cRTRK4Qzy-48" value="" style="endArrow=classic;html=1;rounded=0;strokeWidth=2;entryX=-0.001;entryY=0.319;entryDx=0;entryDy=0;entryPerimeter=0;" parent="1" target="PTuWUrmzwb7cRTRK4Qzy-46" edge="1">
          <mxGeometry width="50" height="50" relative="1" as="geometry">
            <mxPoint x="-3104" y="1208.01" as="sourcePoint" />
            <mxPoint x="-2914" y="1208.01" as="targetPoint" />
          </mxGeometry>
        </mxCell>
        <mxCell id="PTuWUrmzwb7cRTRK4Qzy-49" value="scores_cur_cycle[63:60][6:0]" style="edgeLabel;html=1;align=left;verticalAlign=middle;resizable=0;points=[];labelBackgroundColor=none;fontSize=20;fontFamily=Garamond;" parent="PTuWUrmzwb7cRTRK4Qzy-48" vertex="1" connectable="0">
          <mxGeometry x="0.1703" y="-3" relative="1" as="geometry">
            <mxPoint x="-144" y="-18" as="offset" />
          </mxGeometry>
        </mxCell>
        <mxCell id="PTuWUrmzwb7cRTRK4Qzy-50" value="&lt;b&gt;&lt;font style=&quot;font-size: 16px;&quot; face=&quot;Garamond&quot;&gt;7-bit REG&lt;/font&gt;&lt;/b&gt;" style="rounded=0;whiteSpace=wrap;html=1;fillColor=#fad7ac;strokeColor=#b46504;" parent="1" vertex="1">
          <mxGeometry x="-2694" y="1183.01" width="50" height="80" as="geometry" />
        </mxCell>
        <mxCell id="PTuWUrmzwb7cRTRK4Qzy-51" value="" style="triangle;whiteSpace=wrap;html=1;fillColor=#fad7ac;strokeColor=#b46504;" parent="1" vertex="1">
          <mxGeometry x="-2694" y="1238.47" width="7.5" height="14.733333333333333" as="geometry" />
        </mxCell>
        <mxCell id="PTuWUrmzwb7cRTRK4Qzy-57" value="" style="endArrow=classic;html=1;rounded=0;strokeWidth=3;" parent="1" source="PTuWUrmzwb7cRTRK4Qzy-61" edge="1">
          <mxGeometry width="50" height="50" relative="1" as="geometry">
            <mxPoint x="-3574" y="1407.09" as="sourcePoint" />
            <mxPoint x="-3344" y="1378.01" as="targetPoint" />
          </mxGeometry>
        </mxCell>
        <mxCell id="PTuWUrmzwb7cRTRK4Qzy-58" value="&lt;font style=&quot;font-size: 20px;&quot; face=&quot;Garamond&quot;&gt;query_letters[1:0][1:0]&lt;/font&gt;" style="edgeLabel;html=1;align=center;verticalAlign=middle;resizable=0;points=[];labelBackgroundColor=none;" parent="PTuWUrmzwb7cRTRK4Qzy-57" vertex="1" connectable="0">
          <mxGeometry x="0.0776" y="1" relative="1" as="geometry">
            <mxPoint x="4" y="-14" as="offset" />
          </mxGeometry>
        </mxCell>
        <mxCell id="PTuWUrmzwb7cRTRK4Qzy-59" value="" style="endArrow=classic;html=1;rounded=0;strokeWidth=3;" parent="1" source="PTuWUrmzwb7cRTRK4Qzy-62" edge="1">
          <mxGeometry width="50" height="50" relative="1" as="geometry">
            <mxPoint x="-3574" y="1478.01" as="sourcePoint" />
            <mxPoint x="-3344" y="1448.01" as="targetPoint" />
          </mxGeometry>
        </mxCell>
        <mxCell id="PTuWUrmzwb7cRTRK4Qzy-60" value="&lt;font style=&quot;font-size: 20px;&quot; face=&quot;Garamond&quot;&gt;database_letters[1:0][1:0]&lt;/font&gt;" style="edgeLabel;html=1;align=center;verticalAlign=middle;resizable=0;points=[];labelBackgroundColor=none;" parent="PTuWUrmzwb7cRTRK4Qzy-59" vertex="1" connectable="0">
          <mxGeometry x="-0.498" relative="1" as="geometry">
            <mxPoint x="73" y="-15" as="offset" />
          </mxGeometry>
        </mxCell>
        <mxCell id="PTuWUrmzwb7cRTRK4Qzy-61" value="" style="shape=trapezoid;perimeter=trapezoidPerimeter;whiteSpace=wrap;html=1;fixedSize=1;rotation=90;size=10;fillColor=#f8cecc;strokeColor=#b85450;" parent="1" vertex="1">
          <mxGeometry x="-3614" y="1370.01" width="67.5" height="15" as="geometry" />
        </mxCell>
        <mxCell id="PTuWUrmzwb7cRTRK4Qzy-62" value="" style="shape=trapezoid;perimeter=trapezoidPerimeter;whiteSpace=wrap;html=1;fixedSize=1;rotation=90;size=10;fillColor=#f8cecc;strokeColor=#b85450;" parent="1" vertex="1">
          <mxGeometry x="-3634" y="1439.01" width="67.5" height="15" as="geometry" />
        </mxCell>
        <mxCell id="PTuWUrmzwb7cRTRK4Qzy-63" value="" style="endArrow=classic;html=1;rounded=0;exitX=1;exitY=0.5;exitDx=0;exitDy=0;strokeWidth=2;" parent="1" edge="1">
          <mxGeometry width="50" height="50" relative="1" as="geometry">
            <mxPoint x="-3104" y="1408.01" as="sourcePoint" />
            <mxPoint x="-2924" y="1408.01" as="targetPoint" />
          </mxGeometry>
        </mxCell>
        <mxCell id="PTuWUrmzwb7cRTRK4Qzy-64" value="&lt;font face=&quot;Garamond&quot; style=&quot;font-size: 20px;&quot;&gt;data_packet[63:60][2:0]&lt;/font&gt;" style="edgeLabel;html=1;align=center;verticalAlign=middle;resizable=0;points=[];labelBackgroundColor=none;" parent="PTuWUrmzwb7cRTRK4Qzy-63" vertex="1" connectable="0">
          <mxGeometry x="0.8582" y="-4" relative="1" as="geometry">
            <mxPoint x="-75" y="-21" as="offset" />
          </mxGeometry>
        </mxCell>
        <mxCell id="PTuWUrmzwb7cRTRK4Qzy-97" value="MATRIX CALCULATION" style="text;html=1;strokeColor=none;fillColor=none;align=center;verticalAlign=middle;whiteSpace=wrap;rounded=0;fontSize=26;fontFamily=Garamond;fontStyle=1" parent="1" vertex="1">
          <mxGeometry x="-3893" y="144.01" width="331" height="30" as="geometry" />
        </mxCell>
        <mxCell id="PTuWUrmzwb7cRTRK4Qzy-98" value="scores_out" style="text;html=1;strokeColor=none;fillColor=none;align=center;verticalAlign=middle;whiteSpace=wrap;rounded=0;fontSize=26;fontFamily=Garamond;" parent="1" vertex="1">
          <mxGeometry x="-2895" y="1439.01" width="118.25" height="40.99" as="geometry" />
        </mxCell>
        <mxCell id="PTuWUrmzwb7cRTRK4Qzy-99" value="scores_before&lt;br style=&quot;font-size: 26px;&quot;&gt;_two_cycles" style="text;html=1;strokeColor=none;fillColor=none;align=center;verticalAlign=middle;whiteSpace=wrap;rounded=0;fontSize=26;fontFamily=Garamond;" parent="1" vertex="1">
          <mxGeometry x="-2742.5" y="1439.01" width="145" height="66" as="geometry" />
        </mxCell>
        <mxCell id="PTuWUrmzwb7cRTRK4Qzy-105" value=". . ." style="text;html=1;strokeColor=none;fillColor=none;align=center;verticalAlign=middle;whiteSpace=wrap;rounded=0;fontStyle=1;fontSize=70;rotation=90;" parent="1" vertex="1">
          <mxGeometry x="-3289" y="1081.51" width="161" height="14" as="geometry" />
        </mxCell>
        <mxCell id="PTuWUrmzwb7cRTRK4Qzy-110" value="" style="endArrow=classic;html=1;rounded=0;entryX=0.5;entryY=1;entryDx=0;entryDy=0;strokeWidth=2;" parent="1" target="PTuWUrmzwb7cRTRK4Qzy-61" edge="1">
          <mxGeometry width="50" height="50" relative="1" as="geometry">
            <mxPoint x="-3794" y="708.01" as="sourcePoint" />
            <mxPoint x="-3234" y="978.01" as="targetPoint" />
            <Array as="points">
              <mxPoint x="-3794" y="1378.01" />
            </Array>
          </mxGeometry>
        </mxCell>
        <mxCell id="PTuWUrmzwb7cRTRK4Qzy-116" value="" style="endArrow=classic;html=1;rounded=0;entryX=0.5;entryY=1;entryDx=0;entryDy=0;strokeWidth=2;jumpStyle=none;" parent="1" target="PTuWUrmzwb7cRTRK4Qzy-62" edge="1" source="1McmFWv720N9G1RFTVl9-58">
          <mxGeometry width="50" height="50" relative="1" as="geometry">
            <mxPoint x="-3754" y="938.01" as="sourcePoint" />
            <mxPoint x="-3454" y="1188.01" as="targetPoint" />
            <Array as="points">
              <mxPoint x="-3754" y="1447.01" />
            </Array>
          </mxGeometry>
        </mxCell>
        <mxCell id="qH3Q0jehhY0XurhtMyEn-6" value="" style="endArrow=classic;html=1;rounded=0;exitX=1.002;exitY=0.312;exitDx=0;exitDy=0;strokeWidth=2;exitPerimeter=0;" parent="1" source="qH3Q0jehhY0XurhtMyEn-12" edge="1">
          <mxGeometry width="50" height="50" relative="1" as="geometry">
            <mxPoint x="-2909" y="258.01" as="sourcePoint" />
            <mxPoint x="-3120" y="258" as="targetPoint" />
            <Array as="points">
              <mxPoint x="-2784" y="338.01" />
              <mxPoint x="-2784" y="258.01" />
            </Array>
          </mxGeometry>
        </mxCell>
        <mxCell id="PTuWUrmzwb7cRTRK4Qzy-121" value="" style="endArrow=classic;html=1;rounded=0;strokeWidth=2;fontSize=20;fontFamily=Garamond;labelBackgroundColor=none;" parent="1" edge="1">
          <mxGeometry width="50" height="50" relative="1" as="geometry">
            <mxPoint x="-2527" y="490" as="sourcePoint" />
            <mxPoint x="-2457" y="490" as="targetPoint" />
          </mxGeometry>
        </mxCell>
        <mxCell id="PTuWUrmzwb7cRTRK4Qzy-123" value="scores_out[63:0][6:0]" style="edgeLabel;html=1;align=center;verticalAlign=middle;resizable=0;points=[];labelBackgroundColor=none;fontSize=24;fontFamily=Garamond;" parent="PTuWUrmzwb7cRTRK4Qzy-121" vertex="1" connectable="0">
          <mxGeometry x="0.4088" y="2" relative="1" as="geometry">
            <mxPoint x="124" as="offset" />
          </mxGeometry>
        </mxCell>
        <mxCell id="PTuWUrmzwb7cRTRK4Qzy-122" value="" style="endArrow=classic;html=1;rounded=0;exitX=0.999;exitY=0.748;exitDx=0;exitDy=0;strokeWidth=2;exitPerimeter=0;" parent="1" source="PTuWUrmzwb7cRTRK4Qzy-96" edge="1">
          <mxGeometry width="50" height="50" relative="1" as="geometry">
            <mxPoint x="-2404" y="712.1" as="sourcePoint" />
            <mxPoint x="-2460" y="1181" as="targetPoint" />
          </mxGeometry>
        </mxCell>
        <mxCell id="PTuWUrmzwb7cRTRK4Qzy-124" value="data_packet[63:0][2:0]" style="edgeLabel;html=1;align=center;verticalAlign=middle;resizable=0;points=[];labelBackgroundColor=none;fontSize=24;fontFamily=Garamond;" parent="PTuWUrmzwb7cRTRK4Qzy-122" vertex="1" connectable="0">
          <mxGeometry x="0.4544" y="1" relative="1" as="geometry">
            <mxPoint x="127" y="-1" as="offset" />
          </mxGeometry>
        </mxCell>
        <mxCell id="r99b0siDNTKfVnxiC5jp-1" value="" style="endArrow=classic;html=1;rounded=0;exitX=1;exitY=0.25;exitDx=0;exitDy=0;strokeWidth=2;fontSize=20;fontFamily=Garamond;labelBackgroundColor=none;" parent="1" edge="1">
          <mxGeometry width="50" height="50" relative="1" as="geometry">
            <mxPoint x="-3971" y="1348.01" as="sourcePoint" />
            <mxPoint x="-3891" y="1348.01" as="targetPoint" />
          </mxGeometry>
        </mxCell>
        <mxCell id="r99b0siDNTKfVnxiC5jp-2" value="clk" style="edgeLabel;html=1;align=center;verticalAlign=middle;resizable=0;points=[];labelBackgroundColor=none;fontSize=24;fontFamily=Garamond;" parent="r99b0siDNTKfVnxiC5jp-1" vertex="1" connectable="0">
          <mxGeometry x="0.4088" y="2" relative="1" as="geometry">
            <mxPoint x="-77" y="-1" as="offset" />
          </mxGeometry>
        </mxCell>
        <mxCell id="r99b0siDNTKfVnxiC5jp-3" value="" style="endArrow=classic;html=1;rounded=0;exitX=1;exitY=0.25;exitDx=0;exitDy=0;strokeWidth=2;fontSize=20;fontFamily=Garamond;labelBackgroundColor=none;" parent="1" edge="1">
          <mxGeometry width="50" height="50" relative="1" as="geometry">
            <mxPoint x="-3971" y="1428.01" as="sourcePoint" />
            <mxPoint x="-3891" y="1428.01" as="targetPoint" />
          </mxGeometry>
        </mxCell>
        <mxCell id="r99b0siDNTKfVnxiC5jp-4" value="resetN" style="edgeLabel;html=1;align=center;verticalAlign=middle;resizable=0;points=[];labelBackgroundColor=none;fontSize=24;fontFamily=Garamond;" parent="r99b0siDNTKfVnxiC5jp-3" vertex="1" connectable="0">
          <mxGeometry x="0.4088" y="2" relative="1" as="geometry">
            <mxPoint x="-93" y="1" as="offset" />
          </mxGeometry>
        </mxCell>
        <mxCell id="r99b0siDNTKfVnxiC5jp-5" value="" style="endArrow=classic;html=1;rounded=0;strokeWidth=2;fontSize=20;fontFamily=Garamond;labelBackgroundColor=none;" parent="1" edge="1">
          <mxGeometry width="50" height="50" relative="1" as="geometry">
            <mxPoint x="-2769.37" y="71.00999999999999" as="sourcePoint" />
            <mxPoint x="-2769.12" y="141.01" as="targetPoint" />
          </mxGeometry>
        </mxCell>
        <mxCell id="r99b0siDNTKfVnxiC5jp-6" value="query_letter_sel" style="edgeLabel;html=1;align=center;verticalAlign=middle;resizable=0;points=[];labelBackgroundColor=none;fontSize=24;fontFamily=Garamond;" parent="r99b0siDNTKfVnxiC5jp-5" vertex="1" connectable="0">
          <mxGeometry x="0.4088" y="2" relative="1" as="geometry">
            <mxPoint x="-2" y="-69" as="offset" />
          </mxGeometry>
        </mxCell>
        <mxCell id="V13fuCRI7aaowYzw9b7I-1" value="" style="endArrow=classic;html=1;rounded=0;strokeWidth=2;fontSize=20;fontFamily=Garamond;labelBackgroundColor=none;" parent="1" edge="1">
          <mxGeometry width="50" height="50" relative="1" as="geometry">
            <mxPoint x="-2600" y="71.00999999999999" as="sourcePoint" />
            <mxPoint x="-2599.75" y="141.01" as="targetPoint" />
          </mxGeometry>
        </mxCell>
        <mxCell id="V13fuCRI7aaowYzw9b7I-2" value="database_letter_sel" style="edgeLabel;html=1;align=center;verticalAlign=middle;resizable=0;points=[];labelBackgroundColor=none;fontSize=24;fontFamily=Garamond;" parent="V13fuCRI7aaowYzw9b7I-1" vertex="1" connectable="0">
          <mxGeometry x="0.4088" y="2" relative="1" as="geometry">
            <mxPoint x="-2" y="-69" as="offset" />
          </mxGeometry>
        </mxCell>
        <mxCell id="1McmFWv720N9G1RFTVl9-2" value="" style="endArrow=classic;html=1;rounded=0;strokeWidth=2;entryX=0.39;entryY=1.007;entryDx=0;entryDy=0;entryPerimeter=0;" edge="1" parent="1">
          <mxGeometry width="50" height="50" relative="1" as="geometry">
            <mxPoint x="-3588.5" y="278.01" as="sourcePoint" />
            <mxPoint x="-3526.5" y="278.01" as="targetPoint" />
          </mxGeometry>
        </mxCell>
        <mxCell id="1McmFWv720N9G1RFTVl9-3" value="" style="endArrow=classic;html=1;rounded=0;strokeWidth=2;entryX=0.39;entryY=1.007;entryDx=0;entryDy=0;entryPerimeter=0;" edge="1" parent="1">
          <mxGeometry width="50" height="50" relative="1" as="geometry">
            <mxPoint x="-3588.5" y="299.08" as="sourcePoint" />
            <mxPoint x="-3526.5" y="299.08" as="targetPoint" />
          </mxGeometry>
        </mxCell>
        <mxCell id="1McmFWv720N9G1RFTVl9-4" value="" style="endArrow=classic;html=1;rounded=0;strokeWidth=2;entryX=0.39;entryY=1.007;entryDx=0;entryDy=0;entryPerimeter=0;" edge="1" parent="1">
          <mxGeometry width="50" height="50" relative="1" as="geometry">
            <mxPoint x="-3588.5" y="320" as="sourcePoint" />
            <mxPoint x="-3526.5" y="320" as="targetPoint" />
          </mxGeometry>
        </mxCell>
        <mxCell id="1McmFWv720N9G1RFTVl9-5" value="" style="endArrow=classic;html=1;rounded=0;strokeWidth=2;entryX=0.39;entryY=1.007;entryDx=0;entryDy=0;entryPerimeter=0;" edge="1" parent="1">
          <mxGeometry width="50" height="50" relative="1" as="geometry">
            <mxPoint x="-3589.25" y="709.01" as="sourcePoint" />
            <mxPoint x="-3527.25" y="709.01" as="targetPoint" />
          </mxGeometry>
        </mxCell>
        <mxCell id="1McmFWv720N9G1RFTVl9-6" value="" style="endArrow=classic;html=1;rounded=0;strokeWidth=2;entryX=0.39;entryY=1.007;entryDx=0;entryDy=0;entryPerimeter=0;" edge="1" parent="1">
          <mxGeometry width="50" height="50" relative="1" as="geometry">
            <mxPoint x="-3589.25" y="730.0799999999999" as="sourcePoint" />
            <mxPoint x="-3527.25" y="730.0799999999999" as="targetPoint" />
          </mxGeometry>
        </mxCell>
        <mxCell id="1McmFWv720N9G1RFTVl9-7" value="" style="endArrow=classic;html=1;rounded=0;strokeWidth=2;entryX=0.39;entryY=1.007;entryDx=0;entryDy=0;entryPerimeter=0;" edge="1" parent="1">
          <mxGeometry width="50" height="50" relative="1" as="geometry">
            <mxPoint x="-3589.25" y="751" as="sourcePoint" />
            <mxPoint x="-3527.25" y="751" as="targetPoint" />
          </mxGeometry>
        </mxCell>
        <mxCell id="1McmFWv720N9G1RFTVl9-13" value="&#39;0&#39;" style="text;html=1;strokeColor=none;fillColor=none;align=center;verticalAlign=middle;whiteSpace=wrap;rounded=0;fontFamily=Garamond;fontSize=20;" vertex="1" parent="1">
          <mxGeometry x="-3621" y="737.01" width="33.5" height="30" as="geometry" />
        </mxCell>
        <mxCell id="1McmFWv720N9G1RFTVl9-15" value="&#39;0&#39;" style="text;html=1;strokeColor=none;fillColor=none;align=center;verticalAlign=middle;whiteSpace=wrap;rounded=0;fontFamily=Garamond;fontSize=20;" vertex="1" parent="1">
          <mxGeometry x="-3546" y="1153.01" width="33.5" height="30" as="geometry" />
        </mxCell>
        <mxCell id="1McmFWv720N9G1RFTVl9-16" value="&#39;0&#39;" style="text;html=1;strokeColor=none;fillColor=none;align=center;verticalAlign=middle;whiteSpace=wrap;rounded=0;fontFamily=Garamond;fontSize=20;" vertex="1" parent="1">
          <mxGeometry x="-3618" y="306.01" width="33.5" height="30" as="geometry" />
        </mxCell>
        <mxCell id="1McmFWv720N9G1RFTVl9-17" value="scores_out[0]" style="text;html=1;strokeColor=none;fillColor=none;align=center;verticalAlign=middle;whiteSpace=wrap;rounded=0;fontFamily=Garamond;fontSize=20;" vertex="1" parent="1">
          <mxGeometry x="-3697" y="261.01" width="110" height="30" as="geometry" />
        </mxCell>
        <mxCell id="1McmFWv720N9G1RFTVl9-18" value="scores_out[1]" style="text;html=1;strokeColor=none;fillColor=none;align=center;verticalAlign=middle;whiteSpace=wrap;rounded=0;fontFamily=Garamond;fontSize=20;" vertex="1" parent="1">
          <mxGeometry x="-3707" y="282.01000000000005" width="130" height="30" as="geometry" />
        </mxCell>
        <mxCell id="1McmFWv720N9G1RFTVl9-22" value="scores_out[i]" style="text;html=1;strokeColor=none;fillColor=none;align=center;verticalAlign=middle;whiteSpace=wrap;rounded=0;fontFamily=Garamond;fontSize=20;" vertex="1" parent="1">
          <mxGeometry x="-3700" y="690.01" width="110" height="30" as="geometry" />
        </mxCell>
        <mxCell id="1McmFWv720N9G1RFTVl9-23" value="scores_out[i+1]" style="text;html=1;strokeColor=none;fillColor=none;align=center;verticalAlign=middle;whiteSpace=wrap;rounded=0;fontFamily=Garamond;fontSize=20;" vertex="1" parent="1">
          <mxGeometry x="-3721" y="711.01" width="130" height="30" as="geometry" />
        </mxCell>
        <mxCell id="1McmFWv720N9G1RFTVl9-24" value="" style="endArrow=classic;html=1;rounded=0;strokeWidth=2;entryX=0.39;entryY=1.007;entryDx=0;entryDy=0;entryPerimeter=0;" edge="1" parent="1">
          <mxGeometry width="50" height="50" relative="1" as="geometry">
            <mxPoint x="-3610.25" y="382.2" as="sourcePoint" />
            <mxPoint x="-3548.25" y="382.2" as="targetPoint" />
          </mxGeometry>
        </mxCell>
        <mxCell id="1McmFWv720N9G1RFTVl9-25" value="" style="endArrow=classic;html=1;rounded=0;strokeWidth=2;entryX=0.39;entryY=1.007;entryDx=0;entryDy=0;entryPerimeter=0;" edge="1" parent="1">
          <mxGeometry width="50" height="50" relative="1" as="geometry">
            <mxPoint x="-3610.25" y="352.51" as="sourcePoint" />
            <mxPoint x="-3548.25" y="352.51" as="targetPoint" />
          </mxGeometry>
        </mxCell>
        <mxCell id="1McmFWv720N9G1RFTVl9-26" value="&#39;0&#39;" style="text;html=1;strokeColor=none;fillColor=none;align=center;verticalAlign=middle;whiteSpace=wrap;rounded=0;fontFamily=Garamond;fontSize=20;" vertex="1" parent="1">
          <mxGeometry x="-3643.5" y="368.46999999999997" width="33.5" height="30" as="geometry" />
        </mxCell>
        <mxCell id="1McmFWv720N9G1RFTVl9-27" value="scores_out[0]" style="text;html=1;strokeColor=none;fillColor=none;align=center;verticalAlign=middle;whiteSpace=wrap;rounded=0;fontFamily=Garamond;fontSize=20;" vertex="1" parent="1">
          <mxGeometry x="-3724" y="336.01" width="110" height="30" as="geometry" />
        </mxCell>
        <mxCell id="1McmFWv720N9G1RFTVl9-28" value="scores_out[14]" style="text;html=1;strokeColor=none;fillColor=none;align=center;verticalAlign=middle;whiteSpace=wrap;rounded=0;fontFamily=Garamond;fontSize=20;" vertex="1" parent="1">
          <mxGeometry x="-3658.25" y="1223" width="130" height="30" as="geometry" />
        </mxCell>
        <mxCell id="1McmFWv720N9G1RFTVl9-29" value="" style="endArrow=classic;html=1;rounded=0;strokeWidth=2;entryX=0.39;entryY=1.007;entryDx=0;entryDy=0;entryPerimeter=0;" edge="1" parent="1">
          <mxGeometry width="50" height="50" relative="1" as="geometry">
            <mxPoint x="-3609.25" y="812.2" as="sourcePoint" />
            <mxPoint x="-3547.25" y="812.2" as="targetPoint" />
          </mxGeometry>
        </mxCell>
        <mxCell id="1McmFWv720N9G1RFTVl9-30" value="" style="endArrow=classic;html=1;rounded=0;strokeWidth=2;entryX=0.39;entryY=1.007;entryDx=0;entryDy=0;entryPerimeter=0;" edge="1" parent="1">
          <mxGeometry width="50" height="50" relative="1" as="geometry">
            <mxPoint x="-3609.25" y="782.51" as="sourcePoint" />
            <mxPoint x="-3547.25" y="782.51" as="targetPoint" />
          </mxGeometry>
        </mxCell>
        <mxCell id="1McmFWv720N9G1RFTVl9-31" value="scores_out[i-1]" style="text;html=1;strokeColor=none;fillColor=none;align=center;verticalAlign=middle;whiteSpace=wrap;rounded=0;fontFamily=Garamond;fontSize=20;" vertex="1" parent="1">
          <mxGeometry x="-3731.5" y="796.01" width="120" height="30" as="geometry" />
        </mxCell>
        <mxCell id="1McmFWv720N9G1RFTVl9-32" value="scores_out[i]" style="text;html=1;strokeColor=none;fillColor=none;align=center;verticalAlign=middle;whiteSpace=wrap;rounded=0;fontFamily=Garamond;fontSize=20;" vertex="1" parent="1">
          <mxGeometry x="-3718" y="766.01" width="110" height="30" as="geometry" />
        </mxCell>
        <mxCell id="1McmFWv720N9G1RFTVl9-34" value="" style="endArrow=classic;html=1;rounded=0;strokeWidth=2;entryX=0.39;entryY=1.007;entryDx=0;entryDy=0;entryPerimeter=0;" edge="1" parent="1">
          <mxGeometry width="50" height="50" relative="1" as="geometry">
            <mxPoint x="-3630.5" y="415.99999999999994" as="sourcePoint" />
            <mxPoint x="-3568.5" y="415.99999999999994" as="targetPoint" />
          </mxGeometry>
        </mxCell>
        <mxCell id="1McmFWv720N9G1RFTVl9-35" value="scores_before_two_cycles[0]" style="text;html=1;strokeColor=none;fillColor=none;align=center;verticalAlign=middle;whiteSpace=wrap;rounded=0;fontFamily=Garamond;fontSize=20;" vertex="1" parent="1">
          <mxGeometry x="-3799" y="398.46999999999997" width="110" height="30" as="geometry" />
        </mxCell>
        <mxCell id="1McmFWv720N9G1RFTVl9-36" value="" style="endArrow=classic;html=1;rounded=0;strokeWidth=2;entryX=0.39;entryY=1.007;entryDx=0;entryDy=0;entryPerimeter=0;" edge="1" parent="1">
          <mxGeometry width="50" height="50" relative="1" as="geometry">
            <mxPoint x="-3630.5" y="437.06999999999994" as="sourcePoint" />
            <mxPoint x="-3568.5" y="437.06999999999994" as="targetPoint" />
          </mxGeometry>
        </mxCell>
        <mxCell id="1McmFWv720N9G1RFTVl9-37" value="scores_before_two_cycles[1]" style="text;html=1;strokeColor=none;fillColor=none;align=center;verticalAlign=middle;whiteSpace=wrap;rounded=0;fontFamily=Garamond;fontSize=20;" vertex="1" parent="1">
          <mxGeometry x="-3809" y="420" width="130" height="30" as="geometry" />
        </mxCell>
        <mxCell id="1McmFWv720N9G1RFTVl9-38" value="" style="endArrow=classic;html=1;rounded=0;strokeWidth=2;entryX=0.39;entryY=1.007;entryDx=0;entryDy=0;entryPerimeter=0;" edge="1" parent="1">
          <mxGeometry width="50" height="50" relative="1" as="geometry">
            <mxPoint x="-3630.5" y="457.98999999999995" as="sourcePoint" />
            <mxPoint x="-3568.5" y="457.98999999999995" as="targetPoint" />
          </mxGeometry>
        </mxCell>
        <mxCell id="1McmFWv720N9G1RFTVl9-39" value="&#39;0&#39;" style="text;html=1;strokeColor=none;fillColor=none;align=center;verticalAlign=middle;whiteSpace=wrap;rounded=0;fontFamily=Garamond;fontSize=20;" vertex="1" parent="1">
          <mxGeometry x="-3660" y="443.99999999999994" width="33.5" height="30" as="geometry" />
        </mxCell>
        <mxCell id="1McmFWv720N9G1RFTVl9-40" value="&#39;0&#39;" style="text;html=1;strokeColor=none;fillColor=none;align=center;verticalAlign=middle;whiteSpace=wrap;rounded=0;fontFamily=Garamond;fontSize=20;" vertex="1" parent="1">
          <mxGeometry x="-3585" y="1293.01" width="33.5" height="30" as="geometry" />
        </mxCell>
        <mxCell id="1McmFWv720N9G1RFTVl9-42" value="" style="endArrow=classic;html=1;rounded=0;strokeWidth=2;entryX=0.39;entryY=1.007;entryDx=0;entryDy=0;entryPerimeter=0;" edge="1" parent="1">
          <mxGeometry width="50" height="50" relative="1" as="geometry">
            <mxPoint x="-3630.5" y="840.54" as="sourcePoint" />
            <mxPoint x="-3568.5" y="840.54" as="targetPoint" />
          </mxGeometry>
        </mxCell>
        <mxCell id="1McmFWv720N9G1RFTVl9-43" value="scores_before_two_cycles[i]" style="text;html=1;strokeColor=none;fillColor=none;align=center;verticalAlign=middle;whiteSpace=wrap;rounded=0;fontFamily=Garamond;fontSize=20;labelBackgroundColor=default;" vertex="1" parent="1">
          <mxGeometry x="-3797" y="823.01" width="110" height="30" as="geometry" />
        </mxCell>
        <mxCell id="1McmFWv720N9G1RFTVl9-44" value="" style="endArrow=classic;html=1;rounded=0;strokeWidth=2;entryX=0.39;entryY=1.007;entryDx=0;entryDy=0;entryPerimeter=0;" edge="1" parent="1">
          <mxGeometry width="50" height="50" relative="1" as="geometry">
            <mxPoint x="-3630.5" y="857.6099999999999" as="sourcePoint" />
            <mxPoint x="-3568.5" y="857.6099999999999" as="targetPoint" />
          </mxGeometry>
        </mxCell>
        <mxCell id="1McmFWv720N9G1RFTVl9-45" value="scores_before_two_cycles[i-1]" style="text;html=1;strokeColor=none;fillColor=none;align=center;verticalAlign=middle;whiteSpace=wrap;rounded=0;fontFamily=Garamond;fontSize=20;labelBackgroundColor=default;" vertex="1" parent="1">
          <mxGeometry x="-3870" y="840.54" width="240" height="30" as="geometry" />
        </mxCell>
        <mxCell id="1McmFWv720N9G1RFTVl9-46" value="" style="endArrow=classic;html=1;rounded=0;strokeWidth=2;entryX=0.39;entryY=1.007;entryDx=0;entryDy=0;entryPerimeter=0;" edge="1" parent="1">
          <mxGeometry width="50" height="50" relative="1" as="geometry">
            <mxPoint x="-3630.5" y="892.53" as="sourcePoint" />
            <mxPoint x="-3568.5" y="892.53" as="targetPoint" />
          </mxGeometry>
        </mxCell>
        <mxCell id="1McmFWv720N9G1RFTVl9-47" value="&#39;0&#39;" style="text;html=1;strokeColor=none;fillColor=none;align=center;verticalAlign=middle;whiteSpace=wrap;rounded=0;fontFamily=Garamond;fontSize=20;" vertex="1" parent="1">
          <mxGeometry x="-3660" y="878.54" width="33.5" height="30" as="geometry" />
        </mxCell>
        <mxCell id="1McmFWv720N9G1RFTVl9-48" value="" style="endArrow=classic;html=1;rounded=0;strokeWidth=2;entryX=0.39;entryY=1.007;entryDx=0;entryDy=0;entryPerimeter=0;" edge="1" parent="1">
          <mxGeometry width="50" height="50" relative="1" as="geometry">
            <mxPoint x="-3630.5" y="875.6099999999999" as="sourcePoint" />
            <mxPoint x="-3568.5" y="875.6099999999999" as="targetPoint" />
          </mxGeometry>
        </mxCell>
        <mxCell id="1McmFWv720N9G1RFTVl9-49" value="scores_before_two_cycles[i+1]" style="text;html=1;strokeColor=none;fillColor=none;align=center;verticalAlign=middle;whiteSpace=wrap;rounded=0;fontFamily=Garamond;fontSize=20;labelBackgroundColor=default;" vertex="1" parent="1">
          <mxGeometry x="-3819" y="858.54" width="130" height="30" as="geometry" />
        </mxCell>
        <mxCell id="1McmFWv720N9G1RFTVl9-51" value=". . ." style="text;html=1;strokeColor=none;fillColor=none;align=center;verticalAlign=middle;whiteSpace=wrap;rounded=0;fontStyle=1;fontSize=70;rotation=90;" vertex="1" parent="1">
          <mxGeometry x="-3290" y="647" width="161" height="14" as="geometry" />
        </mxCell>
        <mxCell id="1McmFWv720N9G1RFTVl9-52" value=". . ." style="text;html=1;strokeColor=none;fillColor=none;align=center;verticalAlign=middle;whiteSpace=wrap;rounded=0;fontStyle=1;fontSize=70;rotation=90;" vertex="1" parent="1">
          <mxGeometry x="-2895" y="555.01" width="161" height="14" as="geometry" />
        </mxCell>
        <mxCell id="1McmFWv720N9G1RFTVl9-53" value=". . ." style="text;html=1;strokeColor=none;fillColor=none;align=center;verticalAlign=middle;whiteSpace=wrap;rounded=0;fontStyle=1;fontSize=70;rotation=90;" vertex="1" parent="1">
          <mxGeometry x="-2732" y="554.01" width="161" height="14" as="geometry" />
        </mxCell>
        <mxCell id="1McmFWv720N9G1RFTVl9-54" value=". . ." style="text;html=1;strokeColor=none;fillColor=none;align=center;verticalAlign=middle;whiteSpace=wrap;rounded=0;fontStyle=1;fontSize=70;rotation=90;" vertex="1" parent="1">
          <mxGeometry x="-2897" y="986.01" width="161" height="14" as="geometry" />
        </mxCell>
        <mxCell id="1McmFWv720N9G1RFTVl9-55" value=". . ." style="text;html=1;strokeColor=none;fillColor=none;align=center;verticalAlign=middle;whiteSpace=wrap;rounded=0;fontStyle=1;fontSize=70;rotation=90;" vertex="1" parent="1">
          <mxGeometry x="-2732" y="986.01" width="161" height="14" as="geometry" />
        </mxCell>
        <mxCell id="1McmFWv720N9G1RFTVl9-56" value="" style="ellipse;whiteSpace=wrap;html=1;aspect=fixed;fillColor=#000000;" vertex="1" parent="1">
          <mxGeometry x="-3800" y="933" width="10" height="10" as="geometry" />
        </mxCell>
        <mxCell id="1McmFWv720N9G1RFTVl9-58" value="" style="ellipse;whiteSpace=wrap;html=1;aspect=fixed;fillColor=#000000;" vertex="1" parent="1">
          <mxGeometry x="-3759" y="1004" width="10" height="10" as="geometry" />
        </mxCell>
        <mxCell id="1McmFWv720N9G1RFTVl9-61" value="" style="ellipse;whiteSpace=wrap;html=1;aspect=fixed;fillColor=#000000;" vertex="1" parent="1">
          <mxGeometry x="-2788.5" y="333.47" width="10" height="10" as="geometry" />
        </mxCell>
        <mxCell id="1McmFWv720N9G1RFTVl9-63" value="" style="ellipse;whiteSpace=wrap;html=1;aspect=fixed;fillColor=#000000;" vertex="1" parent="1">
          <mxGeometry x="-2778.5" y="765.47" width="10" height="10" as="geometry" />
        </mxCell>
        <mxCell id="1McmFWv720N9G1RFTVl9-64" value="" style="ellipse;whiteSpace=wrap;html=1;aspect=fixed;fillColor=#000000;" vertex="1" parent="1">
          <mxGeometry x="-2768.5" y="1203.47" width="10" height="10" as="geometry" />
        </mxCell>
        <mxCell id="PTuWUrmzwb7cRTRK4Qzy-96" value="" style="rounded=0;whiteSpace=wrap;html=1;fillColor=none;strokeWidth=5;" parent="1" vertex="1">
          <mxGeometry x="-3889.5" y="141.01" width="1360" height="1390" as="geometry" />
        </mxCell>
        <mxCell id="PTuWUrmzwb7cRTRK4Qzy-73" value="" style="endArrow=classic;html=1;rounded=0;strokeWidth=2;jumpStyle=arc;" parent="1" edge="1">
          <mxGeometry width="50" height="50" relative="1" as="geometry">
            <mxPoint x="-2810" y="1208" as="sourcePoint" />
            <mxPoint x="-3120" y="238" as="targetPoint" />
            <Array as="points">
              <mxPoint x="-2764" y="1208.01" />
              <mxPoint x="-2764" y="238.01" />
            </Array>
          </mxGeometry>
        </mxCell>
        <mxCell id="PTuWUrmzwb7cRTRK4Qzy-69" value="" style="endArrow=classic;html=1;rounded=0;strokeWidth=2;jumpStyle=arc;" parent="1" edge="1">
          <mxGeometry width="50" height="50" relative="1" as="geometry">
            <mxPoint x="-2774" y="770" as="sourcePoint" />
            <mxPoint x="-3120" y="248" as="targetPoint" />
            <Array as="points">
              <mxPoint x="-2774" y="698.01" />
              <mxPoint x="-2774" y="248.01" />
              <mxPoint x="-3060" y="248" />
            </Array>
          </mxGeometry>
        </mxCell>
        <mxCell id="PTuWUrmzwb7cRTRK4Qzy-52" value="" style="endArrow=classic;html=1;rounded=0;strokeWidth=2;endFill=1;entryX=-0.006;entryY=0.312;entryDx=0;entryDy=0;entryPerimeter=0;" parent="1" target="PTuWUrmzwb7cRTRK4Qzy-50" edge="1">
          <mxGeometry width="50" height="50" relative="1" as="geometry">
            <mxPoint x="-2784" y="1208.01" as="sourcePoint" />
            <mxPoint x="-2744" y="1208.01" as="targetPoint" />
          </mxGeometry>
        </mxCell>
        <mxCell id="1McmFWv720N9G1RFTVl9-66" value="" style="endArrow=classic;html=1;rounded=0;strokeWidth=2;fontSize=20;fontFamily=Garamond;labelBackgroundColor=none;" edge="1" parent="1">
          <mxGeometry width="50" height="50" relative="1" as="geometry">
            <mxPoint x="-2930" y="71.00999999999999" as="sourcePoint" />
            <mxPoint x="-2929.75" y="141.01" as="targetPoint" />
          </mxGeometry>
        </mxCell>
        <mxCell id="1McmFWv720N9G1RFTVl9-67" value="diagonal_sel" style="edgeLabel;html=1;align=center;verticalAlign=middle;resizable=0;points=[];labelBackgroundColor=none;fontSize=24;fontFamily=Garamond;" vertex="1" connectable="0" parent="1McmFWv720N9G1RFTVl9-66">
          <mxGeometry x="0.4088" y="2" relative="1" as="geometry">
            <mxPoint x="-2" y="-67" as="offset" />
          </mxGeometry>
        </mxCell>
        <mxCell id="1McmFWv720N9G1RFTVl9-68" value="" style="endArrow=classic;html=1;rounded=0;strokeWidth=2;fontSize=20;fontFamily=Garamond;labelBackgroundColor=none;" edge="1" parent="1">
          <mxGeometry width="50" height="50" relative="1" as="geometry">
            <mxPoint x="-3060" y="71.00999999999999" as="sourcePoint" />
            <mxPoint x="-3059.75" y="141.01" as="targetPoint" />
          </mxGeometry>
        </mxCell>
        <mxCell id="1McmFWv720N9G1RFTVl9-69" value="left_sel" style="edgeLabel;html=1;align=center;verticalAlign=middle;resizable=0;points=[];labelBackgroundColor=none;fontSize=24;fontFamily=Garamond;" vertex="1" connectable="0" parent="1McmFWv720N9G1RFTVl9-68">
          <mxGeometry x="0.4088" y="2" relative="1" as="geometry">
            <mxPoint x="-2" y="-67" as="offset" />
          </mxGeometry>
        </mxCell>
        <mxCell id="1McmFWv720N9G1RFTVl9-70" value="" style="endArrow=classic;html=1;rounded=0;strokeWidth=2;fontSize=20;fontFamily=Garamond;labelBackgroundColor=none;" edge="1" parent="1">
          <mxGeometry width="50" height="50" relative="1" as="geometry">
            <mxPoint x="-3190" y="71.00999999999999" as="sourcePoint" />
            <mxPoint x="-3189.75" y="141.01" as="targetPoint" />
          </mxGeometry>
        </mxCell>
        <mxCell id="1McmFWv720N9G1RFTVl9-71" value="top_sel" style="edgeLabel;html=1;align=center;verticalAlign=middle;resizable=0;points=[];labelBackgroundColor=none;fontSize=24;fontFamily=Garamond;" vertex="1" connectable="0" parent="1McmFWv720N9G1RFTVl9-70">
          <mxGeometry x="0.4088" y="2" relative="1" as="geometry">
            <mxPoint x="-2" y="-67" as="offset" />
          </mxGeometry>
        </mxCell>
      </root>
    </mxGraphModel>
  </diagram>
</mxfile>
